name ./resultDataOpenSim/trcMotMarkerGrf/sub06/grf-04-05.mot
datacolumns 19
datarows 12
range 0.52800000 0.57200000
endheader

                time	     ground_force_vx	     ground_force_vy	     ground_force_vz	     ground_force_px	     ground_force_py	     ground_force_pz	   l_ground_force_vx	   l_ground_force_vy	   l_ground_force_vz	   l_ground_force_px	   l_ground_force_py	   l_ground_force_pz	     ground_torque_x	     ground_torque_y	     ground_torque_z	   l_ground_torque_x	   l_ground_torque_y	   l_ground_torque_z	
          0.52800000	        100.16371775	        605.65126483	        -55.38933296	         -0.82748726	          0.00000000	          0.13868783	          0.00000000	          0.00000000	          0.00000000	          0.00000000	          0.00000000	          0.00000000	          0.00000000	          1.53106409	          0.00000000	          0.00000000	          0.00000000	          0.00000000	
          0.53200000	        104.34894177	        620.21175673	        -55.57256297	         -0.82537935	          0.00000000	          0.13901298	          0.00000000	          0.00000000	          0.00000000	          0.00000000	          0.00000000	          0.00000000	          0.00000000	          1.57300311	          0.00000000	          0.00000000	          0.00000000	          0.00000000	
          0.53600000	        109.42352425	        634.96004310	        -55.65700783	         -0.82363992	          0.00000000	          0.13924367	          0.00000000	          0.00000000	          0.00000000	          0.00000000	          0.00000000	          0.00000000	          0.00000000	          1.62359723	          0.00000000	          0.00000000	          0.00000000	          0.00000000	
          0.54000000	        115.40425118	        649.67619811	        -55.89953571	         -0.82224435	          0.00000000	          0.13940778	          0.00000000	          0.00000000	          0.00000000	          0.00000000	          0.00000000	          0.00000000	          0.00000000	          1.66376340	          0.00000000	          0.00000000	          0.00000000	          0.00000000	
          0.54400000	        122.27265134	        664.10534761	        -56.45679173	         -0.82115418	          0.00000000	          0.13952757	          0.00000000	          0.00000000	          0.00000000	          0.00000000	          0.00000000	          0.00000000	          0.00000000	          1.67863540	          0.00000000	          0.00000000	          0.00000000	          0.00000000	
          0.54800000	        129.97250929	        677.98242234	        -57.35258621	         -0.82032639	          0.00000000	          0.13961216	          0.00000000	          0.00000000	          0.00000000	          0.00000000	          0.00000000	          0.00000000	          0.00000000	          1.66066461	          0.00000000	          0.00000000	          0.00000000	          0.00000000	
          0.55200000	        138.41143709	        691.04242639	        -58.48269039	         -0.81971288	          0.00000000	          0.13966172	          0.00000000	          0.00000000	          0.00000000	          0.00000000	          0.00000000	          0.00000000	          0.00000000	          1.61108940	          0.00000000	          0.00000000	          0.00000000	          0.00000000	
          0.55600000	        147.46229653	        703.03292545	        -59.65233231	         -0.81926288	          0.00000000	          0.13967461	          0.00000000	          0.00000000	          0.00000000	          0.00000000	          0.00000000	          0.00000000	          0.00000000	          1.53934931	          0.00000000	          0.00000000	          0.00000000	          0.00000000	
          0.56000000	        156.96711986	        713.73674581	        -60.62599653	         -0.81893160	          0.00000000	          0.13964957	          0.00000000	          0.00000000	          0.00000000	          0.00000000	          0.00000000	          0.00000000	          0.00000000	          1.46062817	          0.00000000	          0.00000000	          0.00000000	          0.00000000	
          0.56400000	        166.74446806	        722.98881795	        -61.17193017	         -0.81868067	          0.00000000	          0.13958610	          0.00000000	          0.00000000	          0.00000000	          0.00000000	          0.00000000	          0.00000000	          0.00000000	          1.39221858	          0.00000000	          0.00000000	          0.00000000	          0.00000000	
          0.56800000	        176.59513335	        730.67701311	        -61.10382749	         -0.81847257	          0.00000000	          0.13948625	          0.00000000	          0.00000000	          0.00000000	          0.00000000	          0.00000000	          0.00000000	          0.00000000	          1.34962434	          0.00000000	          0.00000000	          0.00000000	          0.00000000	
          0.57200000	        186.30669849	        736.73492953	        -60.32398532	         -0.81826831	          0.00000000	          0.13935526	          0.00000000	          0.00000000	          0.00000000	          0.00000000	          0.00000000	          0.00000000	          0.00000000	          1.34325909	          0.00000000	          0.00000000	          0.00000000	          0.00000000	
